/* XPM */
static char *_e8c0b2eba554639898c8ec9b6074520maVU000RWA6y4Rcq[] = {
/* columns rows colors chars-per-pixel */
"50 50 48 1 ",
"  c black",
". c #040404",
"X c #0B0B0B",
"o c gray5",
"O c gray7",
"+ c #151515",
"@ c #191919",
"# c #1D1D1D",
"$ c #202020",
"% c gray15",
"& c gray16",
"* c #2F2F2F",
"= c #313131",
"- c gray21",
"; c #3A3A3A",
": c #414141",
"> c #494949",
", c #505050",
"< c gray33",
"1 c #5B5B5B",
"2 c #626262",
"3 c #6C6C6C",
"4 c gray46",
"5 c #7B7B7B",
"6 c gray50",
"7 c #838383",
"8 c #8E8E8E",
"9 c gray57",
"0 c gray65",
"q c #AAAAAA",
"w c #B4B4B4",
"e c #BBBBBB",
"r c #C0C0C0",
"t c #C6C6C6",
"y c gray78",
"u c gray81",
"i c #D2D2D2",
"p c #D5D5D5",
"a c gray85",
"s c gray87",
"d c #E2E2E2",
"f c #E7E7E7",
"g c gray91",
"h c #ECECEC",
"j c #F3F3F3",
"k c #F4F4F4",
"l c #F9F9F9",
"z c white",
/* pixels */
"zzzzzzzzzzzzzzzzzzzzzzzzzzzzzzzzzzzzzzzzzzzzzzzzzz",
"zzzzzzzzzzzzzzzzzzzzzzzzzzzzzzzzzzzzzzzzzzzzzzzzzz",
"zzzzzzzzzzzzzzzzzzzzzzzzzzzzzzzzzzzzzzzzzzzzzzzzzz",
"zzzzzzzzzzzzzzzzzzzzzzzzzzzzzzzzzzzzzzzzzzzzzzzzzz",
"zzzzzzzzzzzzzzzzzzzzzzzzzzzzzzzzzzzzzzzzzzzzzzzzzz",
"zzzzzzzzzzzzzzzzzzzzzzzzzzzzzzzzzzzzzzzzzzzzzzzzzz",
"zzzzzzzzzzzzzzzzzzzzzzzzzzzzzzzzzzzzzzzzzzzzzzzzzz",
"zzzzzzzzzzzzzzzzzzzzzzzzagzzzzzzzzzzzzzzzzzzzzzzzz",
"zzzzzzzzzzzzzzzzzzzzzzzi@8uuuuuizzzzzzzzzzzzzzzzzz",
"zzzzzzzzzzzzzzzzzzzzzzi#       5zzzzzzzzzzzzzzzzzz",
"zzzzzzzzzzzzzzzzzzzzzi@       -kzzzzzzzzzzzzzzzzzz",
"zzzzzzzzzzzzzzzzzzzzsO       $uzzzzzzzzzzzzzzzzzzz",
"zzzzzzzzzzzzzzzzzzzj=       *izzzzzzzzzzzzzzzzzzzz",
"zzzzzzzzzzzzzzzzzzl2X@o .O&9jzzzzzzzzzzzzzzzzzzzzz",
"zzzzzzzzzzzzzzzzzz8 whdddfkzzzzzzzzzzzzzzzzzzzzzzz",
"zzzzzzzzzzzzzzzzzpO=lzzzzzzzzzzzzzzzzzzzzzzzzzzzzz",
"zzzzzzzzzzzzzzzzk* tzzzzzzzzzzzzzzzzzzzzzzzzzzzzzz",
"zzzzzzzzzzzzzzzz0 %hzzzzzzzzzzzzzzzzzzzzzzzzzzzzzz",
"zzzzzzzzzzzzzzzk  >kzzzzzzzzzzzzzzzzzzzzzzzzzzzzzz",
"zzzzzzzzzzzzzzz9  <lzzzzzzzzzzzzzzzzzzzzzzzzzzzzzz",
"zzzzzzzzzzzzzzk:  <lzzzzzzzzzzzzzzzzzzzzzzzzzzzzzz",
"zzzzzzzzzzzzzzp   >kzzzzzzzzzzzzzzzzzzzzzzzzzzzzzz",
"zzzzzzzzzzzzzz3   -jzzzzzzzzzzzzzzzzzzzzzzzzzzzzzz",
"zzzzzzzzzzzzzk:   +gzzzzzzzzzzzzzzzzzzzzzzzzzzzzzz",
"zzzzzzzzzzzzzf%    tzzzzzzzzzzzzzzzzzzzzzzzzzzzzzz",
"zzzzzzzzzzzzzso    1zzzzzzzzzzzzzzzzzzzzzzzzzzzzzz",
"zzzzzzzzzzzzzs     +fzzzzzzzzzzzzzzzzzzzzzzzzzzzzz",
"zzzzzzzzzzzzzs      ezzzzzzzzzzzzzzzzzzzzzzzzzzzzz",
"zzzzzzzzzzzzzs      #lzzzzzzzzzzzzzzzzzzzzzzzzzzzz",
"zzzzzzzzzzzzzso      0zzzzzzzzzzzzzzzzzzzzzzzzzzzz",
"zzzzzzzzzzzzzf#      .pzzzzzzzzzzzzzzzzzzzzzzzzzzz",
"zzzzzzzzzzzzzj:       ;jzzzzzzzzzzzzzzzzzzzzzzzzzz",
"zzzzzzzzzzzzzz8        >gzzzzzzzzzzzzzzzzzzzzzzzzz",
"zzzzzzzzzzzzzzj*         ejzzd7kzzzzzzzzzzzzzzzzzz",
"zzzzzzzzzzzzzzzq           &O rzzzzzzzzzzzzzzzzzzz",
"zzzzzzzzzzzzzzzz4            9zzzzzzzzzzzzzzzzzzzz",
"zzzzzzzzzzzzzzzzk,          2zzzzzzzzzzzzzzzzzzzzz",
"zzzzzzzzzzzzzzzzzj,        ,kzzzzzzzzzzzzzzzzzzzzz",
"zzzzzzzzzzzzzzzzzzk6X     2jzzzzzzzzzzzzzzzzzzzzzz",
"zzzzzzzzzzzzzzzzzzzzp>.  9kzzzzzzzzzzzzzzzzzzzzzzz",
"zzzzzzzzzzzzzzzzzzzzzzhagzzzzzzzzzzzzzzzzzzzzzzzzz",
"zzzzzzzzzzzzzzzzzzzzzzzzzzzzzzzzzzzzzzzzzzzzzzzzzz",
"zzzzzzzzzzzzzzzzzzzzzzzzzzzzzzzzzzzzzzzzzzzzzzzzzz",
"zzzzzzzzzzzzzzzzzzzzzzzzzzzzzzzzzzzzzzzzzzzzzzzzzz",
"zzzzzzzzzzzzzzzzzzzzzzzzzzzzzzzzzzzzzzzzzzzzzzzzzz",
"zzzzzzzzzzzzzzzzzzzzzzzzzzzzzzzzzzzzzzzzzzzzzzzzzz",
"zzzzzzzzzzzzzzzzzzzzzzzzzzzzzzzzzzzzzzzzzzzzzzzzzz",
"zzzzzzzzzzzzzzzzzzzzzzzzzzzzzzzzzzzzzzzzzzzzzzzzzz",
"zzzzzzzzzzzzzzzzzzzzzzzzzzzzzzzzzzzzzzzzzzzzzzzzzz",
"zzzzzzzzzzzzzzzzzzzzzzzzzzzzzzzzzzzzzzzzzzzzzzzzzz"
};
