/* XPM */
static char *cd3776eacdd74287f16f2b4659647c91VbPB2wokz42qvN75[] = {
/* columns rows colors chars-per-pixel */
"50 50 55 1 ",
"  c #020202",
". c #060606",
"X c gray4",
"o c gray6",
"O c #111111",
"+ c #161616",
"@ c gray12",
"# c #232323",
"$ c gray15",
"% c gray16",
"& c #2D2D2D",
"* c #313131",
"= c #373737",
"- c #3C3C3C",
"; c gray24",
": c gray27",
"> c gray28",
", c gray30",
"< c #555555",
"1 c #5F5F5F",
"2 c #626262",
"3 c gray42",
"4 c #6F6F6F",
"5 c #717171",
"6 c #747474",
"7 c #7B7B7B",
"8 c gray52",
"9 c gray53",
"0 c gray54",
"q c #8D8D8D",
"w c #939393",
"e c gray58",
"r c #9A9A9A",
"t c gray62",
"y c gray64",
"u c #A7A7A7",
"i c #AEAEAE",
"p c gray71",
"a c #BBBBBB",
"s c gray74",
"d c #C1C1C1",
"f c #C6C6C6",
"g c #CBCBCB",
"h c #CDCDCD",
"j c #D2D2D2",
"k c #D5D5D5",
"l c #DADADA",
"z c gainsboro",
"x c #E2E2E2",
"c c gray92",
"v c #EEEEEE",
"b c #F1F1F1",
"n c #F6F6F6",
"m c #FBFBFB",
"M c white",
/* pixels */
"MMMMMMMMMMMMMMMMMMMMMMMMMMMMMMMMMMMMMMMMMMMMMMMMMM",
"MMMMMMMMMMMMMMMMMMMMMMMMMMMMMMMMMMMMMMMMMMMMMMMMMM",
"MMMMMMMMMMMMMMMMMMMMMMMMMMMMMMMMMMMMMMMMMMMMMMMMMM",
"MMMMMMMMMMMMMMMMMMMMMMMMMMMMMMMMMMMMMMMMMMMMMMMMMM",
"MMMMMMMMMMMMMMMMMMMMMMMMMMMMMMMMMMMMMMMMMMMMMMMMMM",
"MMMMMMMMMMMMMMMMMMMMMMMMMMMMMMMMMMMMMMMMMMMMMMMMMM",
"MMMMMMMMMMMMMMMMMMMMMMMMMMMMMnMMMMMMMMMMMMMMMMMMMM",
"MMMMMMMMMMMMMMMMMMMMMMMMMMMMknMMMMMMMMMMMMMMMMMMMM",
"MMMMMMMMMMMMMMMMMMMMMMMMMMmrhMMMMMMMMMMMMMMMMMMMMM",
"MMMMMMMMMMMMMMMMMMMMMMMMMb< qMMMMMMMMMMMMMMMMMMMMM",
"MMMMMMMMMMMMMMMMMMMMMMMMd#   dMMMMMMMMMMMMMMMMMMMM",
"MMMMMMMMMMMMMMMMMMMMMMv2     OinMMMMMMMMMMMMMMMMMM",
"MMMMMMMMMMMMMMMMMMMMMd#        &4MMMMMMMMMMMMMMMMM",
"MMMMMMMMMMMMMMMMMMMm0+:        @lMMMMMMMMMMMMMMMMM",
"MMMMMMMMMMMMMMMMMMn3 :b1      +lMMMMMMMMMMMMMMMMMM",
"MMMMMMMMMMMMMMMMMn2  6Mc      hMMMMMMMMMMMMMMMMMMM",
"MMMMMMMMMMMMMMMMM0   rMM0    aMMMMMMMMMMMMMMMMMMMM",
"MMMMMMMMMMMMMMMMg    iMMni%.aMMMMMMMMMMMMMMMMMMMMM",
"MMMMMMMMMMMMMMMM8    kMMMMgiMMMMMMMMMMMMMMMMMMMMMM",
"MMMMMMMMMMMMMMMMO    mMMMkqMMMMMMMMMMMMMMMMMMMMMMM",
"MMMMMMMMMMMMMMMl     MMMf0MMMMMMMMMMMMMMMMMMMMMMMM",
"MMMMMMMMMMMMMMMt     xMuuMMMMMMMMMMMMMMMMMMMMMMMMM",
"MMMMMMMMMMMMMMM8     iefMMMMMMMMMMMMMMMMMMMMMMMMMM",
"MMMMMMMMMMMMMMm3     %zMMMMMMMMMMMMMMMMMMMMMMMMMMM",
"MMMMMMMMMMMMMMn,     aMMMMMMMMMMMMMMMMMMMMMMMMMMMM",
"MMMMMMMMMMMMMMn=     cMMMMMMMMMMMMMMMMMMMMMMMMMMMM",
"MMMMMMMMMMMMMMn%     xMMMMMMMMMMMMMMMMMMMMMMMMMMMM",
"MMMMMMMMMMMMMMn$     sMMMMMMMMMMMMMMMMMMMMMMMMMMMM",
"MMMMMMMMMMMMMMn&     rMMMMMMMMMMMMMMMMMMMMMMMMMMMM",
"MMMMMMMMMMMMMMn-     -mMMMMMMMMMMMMMMMMMMMMMMMMMMM",
"MMMMMMMMMMMMMMn<      iMMMMMMMMMMMMMMMMMMMMMMMMMMM",
"MMMMMMMMMMMMMMM5      -bMMMMMMMMMMMMMMMMMMMMMMMMMM",
"MMMMMMMMMMMMMMMw       4MMMMMMMmbMMMMMMMMMMMMMMMMM",
"MMMMMMMMMMMMMMMx        uMMMMMm7bMMMMMMMMMMMMMMMMM",
"MMMMMMMMMMMMMMMM4        wnMMmtlMMMMMMMMMMMMMMMMMM",
"MMMMMMMMMMMMMMMMj         *7a-iMMMMMMMMMMMMMMMMMMM",
"MMMMMMMMMMMMMMMMMr           pMMMMMMMMMMMMMMMMMMMM",
"MMMMMMMMMMMMMMMMMm<        ofMMMMMMMMMMMMMMMMMMMMM",
"MMMMMMMMMMMMMMMMMMb2      XdMMMMMMMMMMMMMMMMMMMMMM",
"MMMMMMMMMMMMMMMMMMMmy+    eMMMMMMMMMMMMMMMMMMMMMMM",
"MMMMMMMMMMMMMMMMMMMMMcr:$8mMMMMMMMMMMMMMMMMMMMMMMM",
"MMMMMMMMMMMMMMMMMMMMMMMMnnMMMMMMMMMMMMMMMMMMMMMMMM",
"MMMMMMMMMMMMMMMMMMMMMMMMMMMMMMMMMMMMMMMMMMMMMMMMMM",
"MMMMMMMMMMMMMMMMMMMMMMMMMMMMMMMMMMMMMMMMMMMMMMMMMM",
"MMMMMMMMMMMMMMMMMMMMMMMMMMMMMMMMMMMMMMMMMMMMMMMMMM",
"MMMMMMMMMMMMMMMMMMMMMMMMMMMMMMMMMMMMMMMMMMMMMMMMMM",
"MMMMMMMMMMMMMMMMMMMMMMMMMMMMMMMMMMMMMMMMMMMMMMMMMM",
"MMMMMMMMMMMMMMMMMMMMMMMMMMMMMMMMMMMMMMMMMMMMMMMMMM",
"MMMMMMMMMMMMMMMMMMMMMMMMMMMMMMMMMMMMMMMMMMMMMMMMMM",
"MMMMMMMMMMMMMMMMMMMMMMMMMMMMMMMMMMMMMMMMMMMMMMMMMM"
};
