/* XPM */
static char *_a7eb02f22a94976850e9b5de7eb91f0HoG9CacKGp4Nigzu[] = {
/* columns rows colors chars-per-pixel */
"50 50 61 1 ",
"  c black",
". c #060606",
"X c gray3",
"o c gray6",
"O c #101010",
"+ c gray8",
"@ c #1B1B1B",
"# c #222222",
"$ c gray15",
"% c #2A2A2A",
"& c #2F2F2F",
"* c gray19",
"= c gray23",
"- c #3E3E3E",
"; c gray25",
": c #464646",
"> c #484848",
", c gray30",
"< c gray34",
"1 c #585858",
"2 c gray36",
"3 c #626262",
"4 c gray40",
"5 c gray42",
"6 c #6F6F6F",
"7 c #727272",
"8 c #747474",
"9 c #7B7B7B",
"0 c #7C7C7C",
"q c #808080",
"w c #868686",
"e c gray54",
"r c gray55",
"t c #929292",
"y c #939393",
"u c #9A9A9A",
"i c #9D9D9D",
"p c #A0A0A0",
"a c #A4A4A4",
"s c gray66",
"d c #AFAFAF",
"f c #B2B2B2",
"g c #B4B4B4",
"h c gray72",
"j c #BCBCBC",
"k c #C3C3C3",
"l c gray78",
"z c #C8C8C8",
"x c gray80",
"c c LightGray",
"v c #D7D7D7",
"b c #DADADA",
"n c gray87",
"m c #E2E2E2",
"M c #E4E4E4",
"N c #E9E9E9",
"B c gray93",
"V c gray95",
"C c #F6F6F6",
"Z c #F9F9F9",
"A c white",
/* pixels */
"AAAAAAAAAAAAAAAAAAAAAAAAAAAAAAAAAAAAAAAAAAAAAAAAAA",
"AAAAAAAAAAAAAAAAAAAAAAAAAAAAAAAAAAAAAAAAAAAAAAAAAA",
"AAAAAAAAAAAAAAAAAAAAAAAAAAAAAAAAAAAAAAAAAAAAAAAAAA",
"AAAAAAAAAAAAAAAAAAAAAAAAAAAAAAAAAAAAAAAAAAAAAAAAAA",
"AAAAAAAAAAAAAAAAAAAAANCAAAAAAAAAAAAAAAAAAAAAAAAAAA",
"AAAAAAAAAAAAAAAAAAAAjsAAAAAAAAAAAAAVAAAAAAAAAAAAAA",
"AAAAAAAAAAAAAAAAAAZr >9hxNZAZAAZZMu8bcAAAAAAAAAAAA",
"AAAAAAAAAAAAAAAAAC9      o@&:22-#o  .6AAAAAAAAAAAA",
"AAAAAAAAAAAAAAAAAq                 oeVAAAAAAAAAAAA",
"AAAAAAAAAAAAAAAAf                 9xAAAAAAAAAAAAAA",
"AAAAAAAAAAAAAAAm+ $+            2xAAAAAAAAAAAAAAAA",
"AAAAAAAAAAAAAAZ6 =VZCMclkhu93-ouCAAAAAAAAAAAAAAAAA",
"AAAAAAAAAAAAAAx  uAAAAAAAAAAV7<ZAAAAAAAAAAAAAAAAAA",
"AAAAAAAAAAAAAZ,  bAAAAAAAAAAq =CAAAAAAAAAAAAAAAAAA",
"AAAAAAAAAAAAAbo  AAAAAAAAAAm   VAAAAAAAAAAAAAAAAAA",
"AAAAAAAAAAAAA9   AAAAAAAAAAw   fAAAAAAAAAAAAAAAAAA",
"AAAAAAAAAAAACX   AAAAAAAAAA2   <AAAAAAAAAAAAAAAAAA",
"AAAAAAAAAAAAx    AAAAAAAAAV:   #MAAAAAAAAAAAAAAAAA",
"AAAAAAAAAAAAj    MAAAAAAAAV=    fAAAAAAAAAAAAAAAAA",
"AAAAAAAAAAAAi    gAAAAAAAAB*    $CAAAAAAAAAAAAAAAA",
"AAAAAAAAAAAA0    rAAAAAAAAB$     jAAAAAAAAAAAAAAAA",
"AAAAAAAAAAAA8    -ZAAAAAAAB#     4AAAAAAAAAAAAAAAA",
"AAAAAAAAAAAAw     dAAAAAAAB#      bAAAAAAAAAAAAAAA",
"AAAAAAAAAAAAs     =BAAAAAAM+&     wAAAAAAAAAAAAAAA",
"AAAAAAAAAAAAk      7CAAAAC7zd     =CAAAAAAAAAAAAAA",
"AAAAAAAAAAAAb       qBAAVwxAZ2     kAAAAAAAAAAAAAA",
"AAAAAAAAAAAAA*       -wa5bAAAvO    2AAAAAAAAAAAAAA",
"AAAAAAAAAAAAAjX        5NAAAAAy    =VAAAAAAAAAAAAA",
"AAAAAAAAAAAAAC1       pZAAAAAAV:   #MAAAAAAAAAAAAA",
"AAAAAAAAAAAAAAB:    #hAAAAAAAAAz   @MAAAAAAAAAAAAA",
"AAAAAAAAAAAAAAAn:  >vAAAAAAAAAAA7  @MAAAAAAAAAAAAA",
"AAAAAAAAAAAAAAAAM19BAAAAAAAAAAAAd  %NAAAAAAAAAAAAA",
"AAAAAAAAAAAAAAAAAZAAAAAAAAAAAAAAb  ,ZAAAAAAAAAAAAA",
"AAAAAAAAAAAAAACcguwqyakvCAAAAAAAM  gAAAAAAAAAAAAAA",
"AAAAAAAAAAAACs=X       o$6gNZAAAg 1ZAAAAAAAAAAAAAA",
"AAAAAAAAAAAV4               9lZZ2@bAAAAAAAAAAAAAAA",
"AAAAAAAAAAZ7                 .26OzAAAAAAAAAAAAAAAA",
"AAAAAAAAAZeOyhbliwo             *avmMMnlaAAAAAAAAA",
"AAAAAAAAAl;MAAAAAAVj1.             @%%o;NAAAAAAAAA",
"AAAAAAAAA=zAAAAAAAAAZz8               7MAAAAAAAAAA",
"AAAAAAAAZ=CAAAAAAAAAAAZby$         $0xZAAAAAAAAAAA",
"AAAAAAAAA-fAAAAAAAAAAAAAAl<e0768rfxNAAAAAAAAAAAAAA",
"AAAAAAAAAn,hAAAAAAAAAAZcykVAAAAAAAAAAAAAAAAAAAAAAA",
"AAAAAAAAAAZfrzBVVVVBlaezZAAAAAAAAAAAAAAAAAAAAAAAAA",
"AAAAAAAAAAAAAMnxkhznmCAAAAAAAAAAAAAAAAAAAAAAAAAAAA",
"AAAAAAAAAAAAAAAAAAAAAAAAAAAAAAAAAAAAAAAAAAAAAAAAAA",
"AAAAAAAAAAAAAAAAAAAAAAAAAAAAAAAAAAAAAAAAAAAAAAAAAA",
"AAAAAAAAAAAAAAAAAAAAAAAAAAAAAAAAAAAAAAAAAAAAAAAAAA",
"AAAAAAAAAAAAAAAAAAAAAAAAAAAAAAAAAAAAAAAAAAAAAAAAAA",
"AAAAAAAAAAAAAAAAAAAAAAAAAAAAAAAAAAAAAAAAAAAAAAAAAA"
};
