/* XPM */
static char *_a1040696dbf450afe4ab8af1facdf9aTYq41JcbrrVrUvW7[] = {
/* columns rows colors chars-per-pixel */
"50 50 60 1 ",
"  c black",
". c gray2",
"X c #0B0B0B",
"o c gray6",
"O c gray7",
"+ c gray9",
"@ c #191919",
"# c gray11",
"$ c #222222",
"% c #2D2D2D",
"& c gray19",
"* c #393939",
"= c gray23",
"- c #414141",
"; c #434343",
": c #484848",
"> c gray31",
", c #535353",
"< c gray33",
"1 c #585858",
"2 c #5F5F5F",
"3 c gray38",
"4 c #656565",
"5 c DimGray",
"6 c #6D6D6D",
"7 c #727272",
"8 c #747474",
"9 c #7B7B7B",
"0 c #7E7E7E",
"q c #818181",
"w c gray53",
"e c #898989",
"r c gray55",
"t c #929292",
"y c #979797",
"u c #9B9B9B",
"i c #9D9D9D",
"p c #A4A4A4",
"a c gray66",
"s c #AEAEAE",
"d c gray70",
"f c #B7B7B7",
"g c #BBBBBB",
"h c gray74",
"j c #C1C1C1",
"k c #C6C6C6",
"l c #C8C8C8",
"z c #CECECE",
"x c gray82",
"c c #D7D7D7",
"v c #D8D8D8",
"b c gray87",
"n c gray88",
"m c #E7E7E7",
"M c gray91",
"N c #ECECEC",
"B c #F1F1F1",
"V c #F4F4F4",
"C c #F9F9F9",
"Z c white",
/* pixels */
"ZZZZZZZZZZZZZZZZZZZZZZZZZZZZZZZZZZZZZZZZZZZZZZZZZZ",
"ZZZZZZZZZZZZZZZZZZZZZZZZZZZZZZZZZZZZZZZZZZZZZZZZZZ",
"ZZZZZZZZZZZZZZZZZZZZZZZZZZZZZZgvZZZZZZZZZZZZZZZZZZ",
"ZZZZZZZZZZZZZZZZZZvkZZZZZZZZVe*ZZZZZZZZZZZZZZZZZZZ",
"ZZZZZZZZZZZZZZZZZf;BZZZZZZZC0 rZZZZZZZZZZZZZZZZZZZ",
"ZZZZZZZZZZZZZZZVqX 3BZZZZZZp  *CZZZZZZZZZZZZZZZZZZ",
"ZZZZZZZZZZZZZZv;    8CZZZZc    iZZZZZZZZZZZZZZZZZZ",
"ZZZZZZZZZZZZZx$      uZZZZ<    #vZZZZZZZZZZZZZZZZZ",
"ZZZZZZZZZZZZC*        NZZk8     ;MZZZZZZZZZZZZZZZZ",
"ZZZZZZZZZZZZCvk3      zZVjb      >NZZZZZZZZZZZZZZZ",
"ZZZZZZZZZZZZZZZV>     dZkZZq      4CZZZZZZZZZZZZZZ",
"ZZZZZZZZZZZZZZZZs     aMlZZmO      uZZZZZZZZZZZZZZ",
"ZZZZZZZZZZZZZZZZC.    l9VZZZf      #MZZZZZZZZZZZZZ",
"ZZZZZZZZZZZZZZZZZ;    79ZZZZZ6      8ZZZZZZZZZZZZZ",
"ZZZZZZZZZZZZZZZZZ5     zZZZZZMo     *CZZZZZZZZZZZZ",
"ZZZZZZZZZZZZZZZZZ8    $CZZZZZZf     @CZZZZZZZZZZZZ",
"ZZZZZZZZZZZZZZZZZ8    fZZZZZZZC;    XVZZZZZZZZZZZZ",
"ZZZZZZZZZZZZZZZZZ8    vZZZZZZZZc.   +VZZZZZZZZZZZZ",
"ZZZZZZZZZZZZZZZZZ7    bZZZZZZZZC;   %VZZZZZZZZZZZZ",
"ZZZZZZZZZZZZZZZZZ7    vZZZZZZZZZh   3ZZZZZZZZZZZZZ",
"ZZZZZZZZZZZZZZZZZ5    cZZZZZZZZZm   kZZZZZZZZZZZZZ",
"ZZZZZZZZZZZZZZZZZ5    zZZZZZZZZZmX :ZZZZZZZZZZZZZZ",
"ZZZZZZZZZZZZZZZZZ4    gZZZZZZZZZm.XzZZZZZZZZZZZZZZ",
"ZZZZZZZZZZZZZZZZZ2    &yvBZZZZZZx tZZZZZZZZZZZZZZZ",
"ZZZZZZZZZZZZZZZZZ<       1gCZZZZ33CZZZZZZZZZZZZZZZ",
"ZZZZZZZZZZZZZZZn7.        .<hNZm;BZZZZZZZZZZZZZZZZ",
"ZZZZZZZZZZZZZZp+             $w8nZZZZZZZZZZZZZZZZZ",
"ZZZZZZZZZZZZN8igf*            +zZZZZZZZZZZZZZZZZZZ",
"ZZZZZZZZZZZMiVZZZ>           ojZZZZZZZZZZZZZZZZZZZ",
"ZZZZZZZZZZZbZZZZC:    i%     gZZZZZZZZZZZZZZZZZZZZ",
"ZZZZZZZZZZZZZZZZZ:   @ZBju3;dZZZZZZZZZZZZZZZZZZZZZ",
"ZZZZZZZZZZZZZZZZZ:   qZZZZZCZZZZZZZZZZZZZZZZZZZZZZ",
"ZZZZZZZZZZZZZZZZZ,   lZZZZZZZZZZZZZZZZZZZZZZZZZZZZ",
"ZZZZZZZZZZZZZZZZZ3   vZZZZZZZZZZZZZZZZZZZZZZZZZZZZ",
"ZZZZZZZZZZZZZZZZZ6   NZZZZZZZZZZZZZZZZZZZZZZZZZZZZ",
"ZZZZZZZZZZZZZZZZZq   ZZZZZZZZZZZZZZZZZZZZZZZZZZZZZ",
"ZZZZZZZZZZZZZZZZZw  ;ZZZZZZZZZZZZZZZZZZZZZZZZZZZZZ",
"ZZZZZZZZZZZZZZZZZt  qZZZZZZZZZZZZZZZZZZZZZZZZZZZZZ",
"ZZZZZZZZZZZZZZZZZi  hZZZZZZZZZZZZZZZZZZZZZZZZZZZZZ",
"ZZZZZZZZZZZZZZZZZs  vZZZZZZZZZZZZZZZZZZZZZZZZZZZZZ",
"ZZZZZZZZZZZZZZZZZd  BZZZZZZZZZZZZZZZZZZZZZZZZZZZZZ",
"ZZZZZZZZZZZZZZZZZf 2ZZZZZZZZZZZZZZZZZZZZZZZZZZZZZZ",
"ZZZZZZZZZZZZZZZZZg zZZZZZZZZZZZZZZZZZZZZZZZZZZZZZZ",
"ZZZZZZZZZZZZZZZZZf,CZZZZZZZZZZZZZZZZZZZZZZZZZZZZZZ",
"ZZZZZZZZZZZZZZZZZgmZZZZZZZZZZZZZZZZZZZZZZZZZZZZZZZ",
"ZZZZZZZZZZZZZZZZZZZZZZZZZZZZZZZZZZZZZZZZZZZZZZZZZZ",
"ZZZZZZZZZZZZZZZZZZZZZZZZZZZZZZZZZZZZZZZZZZZZZZZZZZ",
"ZZZZZZZZZZZZZZZZZZZZZZZZZZZZZZZZZZZZZZZZZZZZZZZZZZ",
"ZZZZZZZZZZZZZZZZZZZZZZZZZZZZZZZZZZZZZZZZZZZZZZZZZZ",
"ZZZZZZZZZZZZZZZZZZZZZZZZZZZZZZZZZZZZZZZZZZZZZZZZZZ"
};
