/* XPM */
static char *_9d6b6d1ce4345d6d5f3f49a89cffce9s9JdXVLt0QRn6tXj[] = {
/* columns rows colors chars-per-pixel */
"50 50 63 1 ",
"  c black",
". c #040404",
"X c gray3",
"o c #0C0C0C",
"O c #131313",
"+ c gray8",
"@ c gray10",
"# c #1E1E1E",
"$ c #232323",
"% c #272727",
"& c gray16",
"* c #2F2F2F",
"= c #313131",
"- c #353535",
"; c gray23",
": c gray24",
"> c #414141",
", c gray28",
"< c gray29",
"1 c gray30",
"2 c #505050",
"3 c #565656",
"4 c gray35",
"5 c gray37",
"6 c gray38",
"7 c #656565",
"8 c DimGray",
"9 c gray42",
"0 c #727272",
"q c #747474",
"w c #7B7B7B",
"e c #7C7C7C",
"r c #818181",
"t c #868686",
"y c gray55",
"u c #8E8E8E",
"i c #979797",
"p c gray60",
"a c gray62",
"s c #A2A2A2",
"d c #A4A4A4",
"f c gray66",
"g c #ACACAC",
"h c #B2B2B2",
"j c #B7B7B7",
"k c #B9B9B9",
"l c #BCBCBC",
"z c #C0C0C0",
"x c gray78",
"c c #C8C8C8",
"v c gray80",
"b c gray82",
"n c gray83",
"m c #DADADA",
"M c #DDDDDD",
"N c #E1E1E1",
"B c #E6E6E6",
"V c gray91",
"C c gray93",
"Z c gray95",
"A c gray97",
"S c #FBFBFB",
"D c white",
/* pixels */
"DDDDDDDDDDDDDDDDDDDDDDDDDDDDDDDDDDDDDDDDDDDDDDDDDD",
"DDDDDDDDDDDDDDDDDDDDDDDDDDDDDDDDDDDDDDDDDDDDDDDDDD",
"DDDDDDDDDDDDDDDDDDDDDDDDDDDDDDDDDDDDDDDDDDDDDDDDDD",
"DDDDDDDDDDDDDDDDDDDDDDDDDDDDDDDDDDDDDDDDDDDDDDDDDD",
"DDDDDDDDDDDDDDDDDDDDDDDDDDDDDDDDDDDDDDDDDDDDDDDDDD",
"DDDDDDDDDDDDDDDDDDDDDDDDDDDDDDDDDDDDDDDDDDDDDDDDDD",
"DDDDDDDDDDDDDDDDDDDDDDDDDDDDDDDDDDDDDDnZDDDDDDDDDD",
"DDDDDDDDDDDDDADDDDDDDDDDDDZADDDDDDDDDniADDDDDDDDDD",
"DDDDDDDDDDDDvfDDDDDDDDDDDx2SDDDDDDDDN7CDDDDDDDDDDD",
"DDDDDDDDDDDv$>VDDDDDDDDDl@$bDDDDDDDC43ZDDDDDDDDDDD",
"DDDDDDDDDDk%  <mDDDDDDDn%  =kDDDDDC6 *BDDDDDDDDDDD",
"DDDDDDDDSd     opSDDDDM>    ObDDDc,   vDDDDDDDDDDD",
"DDDDDDDDs       eSDDSk%     &mDDC     eSDDDDDDDDDD",
"DDDDDDDx        sDDDDw      3SDDZ2     vDDDDDDDDDD",
"DDDDDDDl2       xDDDDm&     yDDDDp     ,BDDDDDDDDD",
"DDDDDDDDZ0      VDDDDD0     gDDDDc      6ZDDDDDDDD",
"DDDDDDDDDM.    &CDDDDDz     5VDDDZ1      iDDDDDDDD",
"DDDDDDDDDDt    1ZDDDDDb#    -NDDDDg       vDDDDDDD",
"DDDDDDDDDDd    7ZDDDDDC;    4DDDDDV;      rSDDDDDD",
"DDDDDDDDDDv    0ADDDDDD<    tDDDDDDs      +CDDDDDD",
"DDDDDDDDDDB    0ADDDDDD5    jDDDDDDV&      bDDDDDD",
"DDDDDDDDDDVo   9ADDDDDD9    xDDDDDDDp      lDDDDDD",
"DDDDDDDDDDV%   6ADDDDDSw    xDDDDDDDMX     lDDDDDD",
"DDDDDDDDDDV&   5ZDDDDDDw    cDDDDDDDDe     mDDDDDD",
"DDDDDDDDDDB@   2CDDDDDSw    xDDDDDDDDz    $CDDDDDD",
"DDDDDDDDDDB    ,ZDDDDDDw    hDDDDDDDDB&   rSDDDDDD",
"DDDDDDDDDDB    ;CDDDDDS0    dDDDDDDDDSq   xDDDDDDD",
"DDDDDDDDDDm    *CDDDDDD0    aDDDDDDDDDy  7ADDDDDDD",
"DDDDDDDDDDx    $CDDDDDD9    pDDDDDDDDDa XnDDDDDDDD",
"DDDDDDDDDDh    oCDDDDDS6    pDDDDDDDDDp aDDDDDDDDD",
"DDDDDDDDDDs     VDDDDDD4    sDDDDDDDDDtqSDDDDDDDDD",
"DDDDDDDDDDi     CDDDDDD2    fDDDDDDDDCwCDDDDDDDDDD",
"DDDDDDDDDDy     9BDDDDS<    +fADDDDDDlNDDDDDDDDDDD",
"DDDDDDDDDSw      =bDDDD,      ,nDDDDBbDDDDDDDDDDDD",
"DDDDDDDDDZ7       +yADA>       #sDDZxDDDDDDDDDDDDD",
"DDDDDDDDDZ5         <xa.         yAkSDDDDDDDDDDDDD",
"DDDDDDDDDZ6           i-          6BDDDDDDDDDDDDDD",
"DDDDDDDDDAq7o        tSDnw        9ADDDDDDDDDDDDDD",
"DDDDDDDDDDDDSao     0ADDDA0       eSDDDDDDDDDDDDDD",
"DDDDDDDDDDDDDDl&   tSDDDDDV:    XrZDDDDDDDDDDDDDDD",
"DDDDDDDDDDDDDDDlO*kSDDDDDDDz+  >cDDDDDDDDDDDDDDDDD",
"DDDDDDDDDDDDDDDDxVDDDDDDDDDDfO6CDDDDDDDDDDDDDDDDDD",
"DDDDDDDDDDDDDDDDDDDDDDDDDDDDDMCDDDDDDDDDDDDDDDDDDD",
"DDDDDDDDDDDDDDDDDDDDDDDDDDDDDDDDDDDDDDDDDDDDDDDDDD",
"DDDDDDDDDDDDDDDDDDDDDDDDDDDDDDDDDDDDDDDDDDDDDDDDDD",
"DDDDDDDDDDDDDDDDDDDDDDDDDDDDDDDDDDDDDDDDDDDDDDDDDD",
"DDDDDDDDDDDDDDDDDDDDDDDDDDDDDDDDDDDDDDDDDDDDDDDDDD",
"DDDDDDDDDDDDDDDDDDDDDDDDDDDDDDDDDDDDDDDDDDDDDDDDDD",
"DDDDDDDDDDDDDDDDDDDDDDDDDDDDDDDDDDDDDDDDDDDDDDDDDD",
"DDDDDDDDDDDDDDDDDDDDDDDDDDDDDDDDDDDDDDDDDDDDDDDDDD"
};
